#!OML:ASF F:\VICON\USERDATA\INSTALL\rory3\rory3.ASF
:FULLY-SPECIFIED
:DEGREES
1
root 0.6512408098891479 17.446997814108425 -14.088787068946312 8.985585077525133 -2.0218430736299107 -3.269083758568379
lfemur -18.910905560307416 9.848310637542156 -18.45129970918676
ltibia 24.484306095876576
lfoot -12.163299977607917 6.221425442664879
ltoes -8.007337482481809
rfemur -20.630605881980962 -2.709700532590488 21.045911047135544
rtibia 28.009904543211412
rfoot -15.775798801057618 -0.9539235961435215
rtoes 2.9218133496725396
lowerback 0.15686263139251544 0.2544557224998657 1.61523333600721
upperback 3.6034915951079904 0.24484396050679968 2.049532153778036
thorax 3.6158238533167384 0.1358351201844105 1.212120544255801
lowerneck -14.501200104126015 0.40047192416035937 -1.9376113309783507
upperneck 27.284995207006673 1.1513098969317326 -0.21235595656648437
head 11.232995661617313 0.2922401602266048 0.4125177016732568
lclavicle 3.882576210155369e-16 -1.4342433331319657e-15
lhumerus -23.54560035040168 4.941636035971696 82.7417025280639
lradius 19.012808843498917
lwrist 2.4509127115707674
lhand -23.26641049938129 -0.07212639893816597
lfingers 7.12502
lthumb 3.185859401991359 29.883773894843575
rclavicle 3.882576210155369e-16 -1.4342433331319657e-15
rhumerus -20.665601640085598 -17.94708916951658 -79.19259943853056
rradius 26.437304233232307
rwrist 30.584495176175405
rhand -19.50960721672156 -26.77769514136299
rfingers 7.12502
rthumb 6.813182827615053 -56.64809540113274
2
root 0.6346399412585951 17.430997956789994 -14.056186963054232 8.55718570408032 -2.139402267758149 -3.2324144855304358
lfemur -18.441106515687558 9.580122753876317 -18.3288005489239
ltibia 24.8365064413117
lfoot -12.287299820040396 6.783384309922781
ltoes -8.392736715328876
rfemur -20.026005682748803 -2.11325525559194 20.963011979950505
rtibia 27.786004545507645
rfoot -15.265399339412832 -1.2832529861514326
rtoes 2.5913838326118595
lowerback 0.26703885475559375 0.18012290982799295 1.626323135434418
upperback 3.7700703546352843 0.14402725463980404 2.0517621087302507
thorax 3.7274436669031408 0.08626088578211041 1.205930626660388
lowerneck -14.51280006211654 0.575868927335405 -1.993020870364623
upperneck 27.712795155494447 1.4681356716804723 -0.3695310534458742
head 11.397395306059508 0.40427519359802055 0.4099077510586681
lclavicle 3.8825761694870525e-16 -1.4342433494181082e-15
lhumerus -23.729000213549543 5.741114884886365 81.94450374057324
lradius 18.166010483960395
lwrist 1.2159338016668038
lhand -23.594109130151708 -1.9033190307341963
lfingers 7.12502
lthumb 2.8693008629081787 28.05708095541097
rclavicle 3.8825761694870525e-16 -1.4342433494181082e-15
rhumerus -20.533401814777353 -17.208290624145235 -79.72599885066093
rradius 26.210504427926207
rwrist 30.862094691564018
rhand -19.505107218646113 -26.415796770263896
rfingers 7.12502
rthumb 6.817552852434176 -56.28599698627448
3
root 0.5911899056211833 17.418998063801173 -13.992087282055717 8.289486227201943 -1.6994954956319424 -3.112356867580021
lfemur -18.05420632177997 9.182905861462135 -18.20090142490215
ltibia 25.05210576757495
lfoot -12.519799541045025 6.9143840688203975
ltoes -8.860555949258844
rfemur -18.285706937503917 -1.7528481006465757 20.917312465548612
rtibia 25.51700611744512
rfoot -15.135699519451927 -2.251721124276477
rtoes 2.0879045432665655
lowerback -0.13259175022020386 -0.02573917324208541 1.6358030874851266
upperback 3.785190308758219 -0.1431650449882771 2.046952219318805
thorax 3.972143280225767 -0.055571415838730376 1.1877909431090856
lowerneck -14.500300108554917 0.6928392612202786 -2.128579655767028
upperneck 28.610494005328455 1.6623630543581434 -0.28683905564403384
head 11.738994539846736 0.47559566961826166 0.4949210735113416
lclavicle 3.8825762160707735e-16 -1.4342433300000298e-15
lhumerus -23.88590007694451 7.194132620822179 80.99740500730215
lradius 17.086812123398914
lwrist -0.6305260020486685
lhand -24.004407170494577 -3.901071286305131
lfingers 7.12502
lthumb 2.4731028272090483 26.06438866143945
rclavicle 3.8825762160707735e-16 -1.4342433300000298e-15
rhumerus -20.784801549720253 -16.80969117695826 -80.05899838459206
rradius 26.092904483002368
rwrist 31.151993888569486
rhand -19.26540790972551 -26.18289780292968
rfingers 7.12502
rthumb 7.049002057390243 -56.045498068684104
4
root 0.5430571966830631 17.43319794145124 -13.931387603597733 8.19698582967711 -1.3040584188701734 -3.1491861300532977
lfemur -17.581705968964656 8.62002032425005 -17.89640353213207
ltibia 24.70970649638686
lfoot -12.361099734752381 7.103563629829648
ltoes -9.248355240787788
rfemur -16.828608155358218 -2.2773239121399627 21.242208810057505
rtibia 23.636306574111323
rfoot -15.165299475176719 -2.5318305871201225
rtoes 1.8848548888460215
lowerback -0.580261677328819 -0.13813806672387474 1.92763053727217
upperback 3.7119609049792617 -0.3132568790261441 2.0544520455959123
thorax 4.1504928748940095 -0.12981759726050057 1.025383688214756
lowerneck -14.497800118603346 0.7716584708581622 -2.1777892702151025
upperneck 29.53949389027527 1.7901213814404933 -0.23376369975482095
head 12.102993811345888 0.5214020511653824 0.5466430572372859
lclavicle 3.8825761510014787e-16 -1.4342433137139556e-15
lhumerus -23.707200222596292 9.0090506341602 80.23560618169869
lradius 16.347013272033927
lwrist -2.308582732344288
lhand -23.950007403252297 -3.454753072598372
lfingers 7.12502
lthumb 2.5256325314920236 26.510087009364565
rclavicle 3.8825761510014787e-16 -1.4342433137139556e-15
rhumerus -21.23710134003901 -16.711291171518297 -80.1458983256354
rradius 26.097104525273153
rwrist 30.931894435595666
rhand -19.09490850314421 -26.1079981570427
rfingers 7.12502
rthumb 7.213491468346806 -55.964998417449095
